<svg xmlns="http://www.w3.org/2000/svg" xmlns:xlink="http://www.w3.org/1999/xlink" viewBox="0,0,256,256" width="480px" height="480px"><g transform=""><g fill="none" fill-rule="nonzero" stroke="none" stroke-width="1" stroke-linecap="butt" stroke-linejoin="miter" stroke-miterlimit="10" stroke-dasharray="" stroke-dashoffset="0" font-family="none" font-weight="none" font-size="none" text-anchor="none" style="mix-blend-mode: normal"><g transform="scale(3.2,3.2)"><path d="M21.5,74.557v-68h13v66z" fill="#e30000"></path><path d="M21.5,75.057c-0.118,0 -0.234,-0.042 -0.325,-0.12c-0.112,-0.096 -0.175,-0.235 -0.175,-0.38v-68c0,-0.276 0.224,-0.5 0.5,-0.5h13c0.276,0 0.5,0.224 0.5,0.5v66c0,0.247 -0.18,0.457 -0.424,0.494l-13,2c-0.025,0.004 -0.051,0.006 -0.076,0.006zM22,7.057v66.917l12,-1.846v-65.071z" fill="#940000"></path><path d="M45.5,6.557v31l12,36v-67z" fill="#e30000"></path><path d="M57.5,74.057c-0.212,0 -0.405,-0.135 -0.475,-0.342l-12,-36c-0.016,-0.051 -0.025,-0.105 -0.025,-0.158v-31c0,-0.276 0.224,-0.5 0.5,-0.5h12c0.276,0 0.5,0.224 0.5,0.5v67c0,0.245 -0.178,0.454 -0.42,0.493c-0.027,0.005 -0.054,0.007 -0.08,0.007zM46,37.476l11,33v-63.419h-11z" fill="#940000"></path><g><path d="M34.5,6.557h-12.947l22.947,66l13,1z" fill="#e30000"></path><path d="M57.5,74.057c-0.013,0 -0.025,0 -0.038,-0.002l-13,-1c-0.198,-0.015 -0.369,-0.146 -0.435,-0.334l-22.947,-66c-0.053,-0.152 -0.028,-0.322 0.065,-0.454c0.093,-0.132 0.245,-0.21 0.407,-0.21h12.948c0.214,0 0.403,0.136 0.473,0.338l23,67c0.055,0.159 0.025,0.335 -0.077,0.468c-0.095,0.122 -0.242,0.194 -0.396,0.194zM44.865,72.083l11.915,0.917l-22.637,-65.943h-11.887z" fill="#940000"></path></g></g></g></g></svg>